<svg xmlns="http://www.w3.org/2000/svg" viewBox="0 0 683.74 714.8"><defs><style>.cls-1{opacity:0.27;}.cls-2{fill:#0f060d;}.cls-3{fill:#fff;}.cls-4{fill:#846a3a;}.cls-5{fill:#da225f;}.cls-6{fill:#67a321;}.cls-7{fill:#282828;}.cls-8{opacity:0.21;}.cls-9{fill:#230808;}.cls-10{opacity:0.69;}</style></defs><g id="Layer_2" data-name="Layer 2"><g id="_ÎÓÈ_1" data-name="—ÎÓÈ_1"><g class="cls-1"><path class="cls-2" d="M683.71,518.61a225.4,225.4,0,0,0-10.22-58.83c-.48-1.5-1-3-1.48-4.47l-.42-1.23c-.48-1.36-1-2.72-1.46-4.07-.16-.44-.33-.88-.5-1.32-.37-1-.74-1.94-1.12-2.9l-.81-2L667,442q-1-2.29-2-4.54c-.07-.17-.14-.33-.22-.5A183,183,0,0,0,634.1,389c-3-3.31-6.09-6.42-9.26-9.37l-.78-.73-1.81-1.63c-.86-.76-1.72-1.51-2.59-2.24-.44-.37-.87-.73-1.31-1.08l-.9-.75-.38-.28c-15-12-31.64-20.17-49-23.82a105.11,105.11,0,0,0-21.6-2.25,111.24,111.24,0,0,0-47.42,10.94c-13.5-66.12-10.47-142.06,9.69-189.67a45.52,45.52,0,0,0,1.64-4.49c13.76-16.27,33.42-35.08,57.53-46.16a45.64,45.64,0,0,0,26.65-43.44,45.69,45.69,0,0,0-15.08-36.18l-.19-.17C563.43,23.51,544.75,16,525.33,16a77.35,77.35,0,0,0-26.28,4.67c-20.79,7.51-39.47,23.55-55.52,47.67-1.51,2.26-3,4.59-4.42,7C401.29,52,356,39.12,308.73,39.12,253.28,39.12,199.07,57,156.09,89.5c-16.88,12.75-37.82,30.14-54.83,54.27a46.29,46.29,0,0,0-6.44,6.32,45.51,45.51,0,0,0-10.59,33.07A46.08,46.08,0,0,0,130,225.42c1.17,0,2.36,0,3.54-.13l.17,0c5.56-.45,11.26-.68,17-.68,27,0,51.66,5,77.79,10.21l.3.06c22.06,4.44,44.72,9,69,10.59a515,515,0,0,0-47.33,75.88,136.61,136.61,0,0,0-56-11.87,149.53,149.53,0,0,0-60,12.92C105.56,335,79.53,355.81,59.1,382.7s-33.48,57.61-37.59,88.57c-6.11,46.07,6.43,95.53,35.31,139.29,26.76,40.55,64.69,72.05,107.26,89.24a40.48,40.48,0,0,0,5.81,2.6c1.29.45,2.57.93,3.85,1.41l2.83,1a40.57,40.57,0,0,0,4.91,1.45c1.2.27,2.16.51,2.92.74a39.77,39.77,0,0,0,6.82,1.58c4.93,1.22,9.9,2.24,14.82,3a228.2,228.2,0,0,0,37.31,3.13c41.25,0,78.76-12.13,107.62-34.12a217.18,217.18,0,0,0,50.42,22.07l1.05.31,3.1.89,2.15.58,2.27.61c1.48.38,3,.75,4.46,1.1l.17,0a251,251,0,0,0,50.7,6.65q3.68.11,7.37.11a251.31,251.31,0,0,0,91.6-17.2c29.66-11.74,55.92-29.32,75.93-50.84,25.89-27.87,40.87-64.58,43.32-106.15q0-.79.06-1.59a41.47,41.47,0,0,0-.19-4.73c.08-1,.12-2,.13-2.93v-.26c.08-.89.13-1.7.16-2.58l0-.76c0-1.94,0-3.88,0-5.82h0C683.74,519.66,683.73,519.13,683.71,518.61Z"/></g><path class="cls-3" d="M663.71,502.61a225.4,225.4,0,0,0-10.22-58.83c-.48-1.5-1-3-1.48-4.47l-.42-1.23c-.48-1.36-1-2.72-1.46-4.07-.16-.44-.33-.88-.5-1.32-.37-1-.74-1.94-1.12-2.9l-.81-2L647,426q-1-2.29-2-4.54c-.07-.17-.14-.33-.22-.5A183,183,0,0,0,614.1,373c-3-3.31-6.09-6.42-9.26-9.37l-.78-.73-1.81-1.63c-.86-.76-1.72-1.51-2.59-2.24-.44-.37-.87-.73-1.31-1.08l-.9-.75-.38-.28c-15-12-31.64-20.17-49-23.82a105.11,105.11,0,0,0-21.6-2.25,111.24,111.24,0,0,0-47.42,10.94c-13.5-66.12-10.47-142.06,9.69-189.67a45.52,45.52,0,0,0,1.64-4.49c13.76-16.27,33.42-35.08,57.53-46.16a45.64,45.64,0,0,0,26.65-43.44,45.69,45.69,0,0,0-15.08-36.18l-.19-.17C543.43,7.51,524.75,0,505.33,0a77.35,77.35,0,0,0-26.28,4.67c-20.79,7.51-39.47,23.55-55.52,47.67-1.51,2.26-3,4.59-4.42,7C381.29,36,336,23.12,288.73,23.12,233.28,23.12,179.07,41,136.09,73.5c-16.88,12.75-37.82,30.14-54.83,54.27a46.29,46.29,0,0,0-6.44,6.32,45.51,45.51,0,0,0-10.59,33.07A46.08,46.08,0,0,0,110,209.42c1.17,0,2.36,0,3.54-.13l.17,0c5.56-.45,11.26-.68,17-.68,27,0,51.66,5,77.79,10.21l.3.06c22.06,4.44,44.72,9,69,10.59a515,515,0,0,0-47.33,75.88,136.61,136.61,0,0,0-56-11.87,149.53,149.53,0,0,0-60,12.92C85.56,319,59.53,339.81,39.1,366.7S5.62,424.31,1.51,455.27C-4.6,501.34,7.94,550.8,36.82,594.56c26.76,40.55,64.69,72.05,107.26,89.24a40.48,40.48,0,0,0,5.81,2.6c1.29.45,2.57.93,3.85,1.41l2.83,1a40.57,40.57,0,0,0,4.91,1.45c1.2.27,2.16.51,2.92.74a39.77,39.77,0,0,0,6.82,1.58c4.93,1.22,9.9,2.24,14.82,3a228.2,228.2,0,0,0,37.31,3.13c41.25,0,78.76-12.13,107.62-34.12a217.18,217.18,0,0,0,50.42,22.07l1.05.31,3.1.89,2.15.58,2.27.61c1.48.38,3,.75,4.46,1.1l.17,0a251,251,0,0,0,50.7,6.65q3.68.11,7.37.11a251.31,251.31,0,0,0,91.6-17.2c29.66-11.74,55.92-29.32,75.93-50.84,25.89-27.87,40.87-64.58,43.32-106.15q0-.79.06-1.59a41.47,41.47,0,0,0-.19-4.73c.08-1,.12-2,.13-2.93v-.26c.08-.89.13-1.7.16-2.58l0-.76c0-1.94,0-3.88,0-5.82h0C663.74,503.66,663.73,503.13,663.71,502.61Z"/><path class="cls-4" d="M520.89,57.15C513,51.56,505,50.32,496.62,53.34c-19.86,7.17-37.93,36.48-47.52,63.05C466.26,95.69,490.4,72.47,520.89,57.15Z"/><path class="cls-5" d="M537.42,383.75c-23.37-4.91-47.88,6.21-70.8,32.23a5.88,5.88,0,0,1-8.29.52,7.06,7.06,0,0,1-.92-1.06,50.08,50.08,0,0,1-11.52,1.38c-11.21,0-20.88-3.86-30.35-7.64-11.53-4.61-22.41-9-36.65-6.93a6,6,0,0,1-3.31-.5c-29.44,6.63-52.44,22.07-66.77,45-17,27.09-20.4,62.35-9.65,99.3,13.59,46.74,52.73,81,107.38,93.94,65.08,15.42,135.73-3.13,175.75-46.17,35.45-38.15,34.55-94.42,21.87-134.36C591.25,418.69,565.68,389.71,537.42,383.75Z"/><path class="cls-5" d="M298.86,440.47a107.73,107.73,0,0,1,40.48-37.75c-13.74-21.73-41.28-27.5-70.45-14.62a5.82,5.82,0,0,1-7.45-2.49c-1.08.06-2.15.11-3.18.11-18,0-31.24-9.43-37.31-26.94-25.93-16.12-56.2-17.91-85.89-5-42.42,18.51-76.25,63-82.25,108.26-10.63,80,58.24,168.76,141.68,182.56,40.81,6.74,94.77-.31,124-40.32.1-.13.21-.22.32-.35a136.17,136.17,0,0,1-31-54.67C276.19,509.09,280.08,470.44,298.86,440.47Z"/><path class="cls-6" d="M427.74,132.83c-63.48-69.36-181-78.08-260.47-18.05C152.8,125.71,136.68,139.12,124,157c34.89-.86,65.35,5.24,94.92,11.18,49,9.87,95.35,19.17,154.21-6.6,10.67-4.67,21.1-10.52,31.19-16.16C411.92,141.12,419.74,136.75,427.74,132.83Z"/><path class="cls-7" d="M623.74,504.12a183.81,183.81,0,0,0-8.38-48.25c-14.2-44.75-43.14-76.79-75.52-83.6-17.9-3.78-44.9-1.53-74.71,28.17a7,7,0,0,0-1.43.43,47.44,47.44,0,0,1-8.55,3C424,320.4,422.53,205.92,452,136.49a5.84,5.84,0,0,0-.09-4.76c17.39-22.54,44.18-50.41,79.34-66.56a5.84,5.84,0,0,0,3-7.26,5.88,5.88,0,0,0-1.58-6.37c-12.36-11-26.21-14.25-40-9.24-27.15,9.8-49,49.2-58,80.65-67.86-71.87-191-80.56-274.4-17.54-17.15,13-36.56,29.31-50.82,52.32a5.86,5.86,0,0,0,1.05,11.67c39.43-3.19,73.34,3.66,106.16,10.25,26.22,5.27,51.68,10.38,78.72,10.38,25.46,0,52.32-4.54,82.51-17.75,3.64-1.59,7.21-3.3,10.76-5.08C328.62,221,268.79,298.42,246.3,371.76a24.58,24.58,0,0,1-11.94-11.47,5.86,5.86,0,0,0-1.62-7.78l-1.89-1.3a5.86,5.86,0,0,0-5.83-3.69c-28.8-17-62.07-18.69-94.64-4.47-46,20.05-82.7,68.37-89.22,117.48C31.05,536.78,88,620.32,163.36,648.38c0,.1-.07.21-.12.31,2.37.84,4.71,1.73,7.06,2.59,2.21.5,4.37,1.05,6.5,1.72-.07-.11-.15-.21-.22-.33a152.28,152.28,0,0,0,16,3.54,187.36,187.36,0,0,0,30.76,2.59c43.82,0,81.32-16.47,103.89-46.52,20.07,18.38,46.09,31.86,76.6,39.09A211.21,211.21,0,0,0,452.66,657c53.54,0,105.4-20,138.22-55.27,21.65-23.3,31-52.51,32.69-81.27a19.66,19.66,0,0,1-.06-7.22c-.45,2.63.18-3.35.19-4C623.73,507.57,623.74,505.84,623.74,504.12ZM496.62,53.34c8.39-3,16.38-1.78,24.27,3.81-30.49,15.32-54.63,38.54-71.79,59.24C458.69,89.82,476.76,60.51,496.62,53.34ZM373.11,161.53C314.25,187.3,267.93,178,218.9,168.13c-29.57-5.94-60-12-94.92-11.18,12.7-17.83,28.82-31.24,43.29-42.17,79.44-60,197-51.31,260.47,18.05-8,3.92-15.82,8.29-23.44,12.54C394.21,151,383.78,156.86,373.11,161.53Zm61-16.25a5.9,5.9,0,0,0,1.72.57c-28.13,80.44-18.47,187.9,7.21,259.07-7.93-.58-15.22-3.49-23.13-6.65-9.84-3.93-20.77-8.27-34.13-8.24a5.91,5.91,0,0,0-4.76-1.34,140.14,140.14,0,0,0-31,8.91,2.79,2.79,0,0,0-.15-.3c-15.56-25.55-45.47-34.15-77.69-23.05a5.94,5.94,0,0,0-4.75-1.21,47.79,47.79,0,0,1-9.47.94C284.86,287.57,365.18,195.31,434.09,145.28Zm-115.56,459c-29.27,40-83.23,47.06-124,40.32C111.05,630.83,42.18,542.11,52.81,462.07c6-45.23,39.83-89.75,82.25-108.26,29.69-12.94,60-11.15,85.89,5,6.07,17.51,19.27,26.94,37.31,26.94,1,0,2.1-.05,3.18-.11a5.82,5.82,0,0,0,7.45,2.49c29.17-12.88,56.71-7.11,70.45,14.62a107.73,107.73,0,0,0-40.48,37.75c-18.78,30-22.67,68.62-11,108.82a136.17,136.17,0,0,0,31,54.67C318.74,604.09,318.63,604.18,318.53,604.31Zm263.76-10.53c-40,43-110.67,61.59-175.75,46.17-54.65-13-93.79-47.2-107.38-93.94-10.75-36.95-7.32-72.21,9.65-99.3,14.33-22.89,37.33-38.33,66.77-45a6,6,0,0,0,3.31.5c14.24-2,25.12,2.32,36.65,6.93,9.47,3.78,19.14,7.64,30.35,7.64a50.08,50.08,0,0,0,11.52-1.38,7.06,7.06,0,0,0,.92,1.06,5.88,5.88,0,0,0,8.29-.52c22.92-26,47.43-37.14,70.8-32.23,28.26,6,53.83,34.94,66.74,75.67C616.84,499.36,617.74,555.63,582.29,593.78Z"/><g class="cls-8"><path class="cls-9" d="M318.84,604h0a136.17,136.17,0,0,1-31-54.67c-7.18-24.69-8.47-48.79-4.06-70.66-15.6,26.27-37,46.5-65.62,60.07-49.58,23.54-92.74,30.8-139.46,25.89,26.13,40.54,68.61,72.25,115.75,80,33.79,5.58,76.59,1.68,106.93-22.53l-6.85-22.18A58.17,58.17,0,0,0,318.84,604Z"/><path class="cls-9" d="M582.29,593.78c35.45-38.15,34.55-94.42,21.87-134.36-7.36-23.23-18.85-42.63-32.6-56.13a95.76,95.76,0,0,1-4.84,24.58c-9.93,28-24,59.38-41.93,83-29,38.16-72.6,54.79-117,67.29-21.26,6-48.35,19.37-74,24.11C352.59,620,377.35,633,406.54,640,471.62,655.37,542.27,636.82,582.29,593.78Z"/><path class="cls-9" d="M604.16,459.42c12.68,39.94,13.58,96.21-21.87,134.36-40,43-110.67,61.59-175.75,46.17-29.19-6.92-54-19.92-72.76-37.65q-3.5.65-6.94,1.06c5.1,6.61,10.23,13.16,15.09,19.65.61.81,1.25,1.62,1.9,2.41,17.12,11.73,37.32,20.58,60,26A211.21,211.21,0,0,0,452.66,657c53.54,0,105.4-20,138.22-55.27,21.65-23.3,31-52.51,32.69-81.27a19.66,19.66,0,0,1-.06-7.22c-.45,2.63.18-3.35.19-4,0-1.72,0-3.45,0-5.17a183.81,183.81,0,0,0-8.38-48.25c-9.19-29-24.56-52.6-43-67.52-.18,5-.36,10-.76,14.94C585.31,416.79,596.8,436.19,604.16,459.42Z"/><path class="cls-9" d="M318.53,604.31c.1-.13.21-.22.31-.34a58.17,58.17,0,0,1-24.27-4.05l6.85,22.18A92.8,92.8,0,0,0,318.53,604.31Z"/><path class="cls-9" d="M183.11,161.45c12.22,2,24.08,4.33,35.79,6.68,49,9.87,95.35,19.17,154.21-6.6,10.67-4.67,21.1-10.52,31.19-16.16,7.62-4.25,15.44-8.62,23.44-12.54a171.84,171.84,0,0,0-50.38-37.69c-34,27.64-80.49,38.34-121.85,49.35Q219.5,154.09,183.11,161.45Z"/></g><g class="cls-10"><path class="cls-3" d="M142.88,373.25c-25.29,1.7-43.59,22.71-57,42.25-14,20.44-13.84,44.12-12.75,68,.41,8.85,7.09,16.26,16.26,16.26,8.56,0,16.67-7.4,16.27-16.26a261,261,0,0,1-.28-27.55c0-.49.49-4.84.39-4.53.36-2.23.84-4.44,1.41-6.63.25-.95.54-1.89.86-2.83.08-.27.15-.49.21-.68l.34-.68a57.8,57.8,0,0,1,3.22-5.4c.94-1.48,1.93-2.93,2.92-4.38.53-.76,1.07-1.53,1.62-2.29l1.67-2.23a117.84,117.84,0,0,1,9.63-10.72c1.46-1.44,3-2.8,4.57-4.14l.6-.49c1.07-.78,2.18-1.51,3.3-2.22.8-.49,1.62-1,2.46-1.41.25-.14,1.19-.54,1.86-.82s1.15-.37,1.74-.53l.54-.16h.16c8.84-.59,16.26-6.94,16.26-16.26C159.14,381.1,151.73,372.66,142.88,373.25Z"/><path class="cls-3" d="M112.83,530.91c-.19-.35-.67-1.41-.92-1.92-.38-1.09-.73-2.2-1-3.3-.87-3-1.51-6-2.17-9-1.93-8.66-11.79-13.62-20-11.36-8.85,2.44-13.28,11.36-11.35,20,1.69,7.61,3.67,15,7.42,22,4.22,7.78,14.78,10.2,22.25,5.83A16.48,16.48,0,0,0,112.83,530.91Z"/><path class="cls-3" d="M353.13,555.81A135.89,135.89,0,0,1,342,537.93c-.69-1.37-1.33-2.77-2-4.17,1.35,3-.89-2.52-1.09-3.08a86.3,86.3,0,0,1-3.05-11.29c-.25-1.24-.45-2.48-.65-3.72.41,2.43-.24-3-.29-3.61a110.35,110.35,0,0,1-.11-12.2c.14-3.63.5-7.25.92-10.86-.15,1.36.62-4.06.71-4.6.39-2.37.85-4.73,1.31-7.09,1.71-8.69-2.34-17.52-11.35-20-8.06-2.22-18.3,2.65-20,11.36-3.8,19.36-5.52,38.39-2.16,57.93s13.85,36.75,25.86,52.2c5.45,7,17.32,5.68,23,0C360,572,358.56,562.8,353.13,555.81Z"/></g></g></g></svg>