<svg xmlns="http://www.w3.org/2000/svg" viewBox="0 0 300.1 313.78"><defs><style>.cls-1{fill:#ff7286;}.cls-2{fill:#ff4662;}.cls-3{fill:#ff758a;}.cls-4{fill:#ffb5c0;}.cls-5{fill:#ff96a5;}.cls-6{fill:#ffdbaa;}.cls-7{fill:#ffcd7d;}.cls-8{fill:#da225f;}.cls-9{fill:#ff9ec2;}.cls-10{fill:#ffd3e3;}</style></defs><g id="Layer_2" data-name="Layer 2"><g id="Layer_3" data-name="Layer 3"><path class="cls-1" d="M111.92,165.19c-3.39-1-8-2.55-8.9-6.42-.89-.78-1.79-1.56-2.67-2.36a2.26,2.26,0,0,1-3.12-1.56C92.89,146.63,82.29,143,78.4,134.76h0c2.54-14.14,18,3.43,24.24,6.64C110,145.91,130.63,162.09,111.92,165.19Z"/><path class="cls-1" d="M11.76,75.75c-6-5.62-9.42-15-6.07-22.81,1-2.83,5.3-5.51,7.42-2.33a2.38,2.38,0,0,1-1,3.2c-1.47,2.21-.23,5.29.81,7.47,1.47,3.52,4.16,6.33,5.67,9.84C20.43,75.16,14.86,79,11.76,75.75Z"/><path class="cls-1" d="M143,203.71a15.53,15.53,0,0,1-1.16-1.63c-5.56-2.1-5.16-8.9-7.61-13.43C128.88,195,6.63,79,21.08,75.47c-23.39-35.3-2.56-22.33,13.21-2.12C52.91,93.7,73.44,112.19,92.55,132c-.18-.21-.37-.41-.56-.62,5.16,6.58,11.22,12.2,17.4,17.82,15.92,2.67,27.31,18.69,39.08,28.91a5.44,5.44,0,0,1,.81.25c-1.64,3.7-1.14,7.74-.83,11.64a.06.06,0,0,0,0,0A87.21,87.21,0,0,0,150,206.82,8.36,8.36,0,0,1,143,203.71Z"/><path class="cls-1" d="M20.17,87C2.31,69.6,27.92,59.71,27.41,78.79,30.71,84.17,26,92.58,20.17,87Z"/><path class="cls-1" d="M6.42,62.33C4.47,57.24,5.69,44,13.64,47.43c3.13,3.82-.33,9.83-.2,14.41A3.61,3.61,0,0,1,6.42,62.33Z"/><path class="cls-1" d="M6.58,123.48a1,1,0,0,1,2.09,0A1,1,0,0,1,6.58,123.48Z"/><path class="cls-1" d="M17.16,146.14c-13-9-20.67-26.49-15.57-41.84,4.15-7.09,14,1.48,10.1,7.39a1.31,1.31,0,0,1-2.53.44L8.73,112C5.91,120.38,36.45,149.58,17.16,146.14Z"/><path class="cls-1" d="M146.61,284.67c-2.54-2.83-3-6.78-3.76-10.36-11.4,6.33-44.95-46.25-57.22-55.11C66.49,199,45.18,180.86,28.43,158.53c-3.27-3.34-8.07-7.37-6.58-12.56-7-12.66-20.44-27.84-14.43-42.94a8.35,8.35,0,0,1,13.11-1.88c27.36,36.2,58.48,69.55,89.34,103.1l-.69-.77c1.31,1.45,2.6,2.92,3.9,4.37h0c8.51,9.46,17.32,19,27.93,26.12h0c2.81,2.15,6.28,3.29,9.05,5.45h0a13.68,13.68,0,0,1,1.19,1.07,83.19,83.19,0,0,0-.2,39.95c-.06-.28-.12-.56-.19-.84.49,2.1.88,4.21,1.32,6.32A5.42,5.42,0,0,1,146.61,284.67Z"/><path class="cls-1" d="M132.77,203c-14.6-11.36-9.37-36,6.51-16.1l-.38-.54c2.3,3.41,7.24,10.92,1.38,13.2A4.46,4.46,0,0,1,132.77,203Z"/><path class="cls-2" d="M286.74,75.32s0,0,0-.06h0Zm-39.12,40,0-.06Zm-.06.09.1-.14A.71.71,0,0,0,247.56,115.39ZM282.2,170h0v0Zm-121,133.07c-8.27-3.79-8-15.74-10.37-23.46.07.28.13.56.19.84-7-24.56,2.48-48.21,10.27-71.09a7.62,7.62,0,0,1-1.43-2.91,5.16,5.16,0,0,1-2.83.37c-.06,2.08-.79,4.66-3.33,4.59-6.8-3-4.23-15-5.28-21.4a.06.06,0,0,1,0,0c-4.27-18.51,16.66-25.19,10.19-10.1a6.6,6.6,0,0,1,5.25-1.89c1.05-4,4.31-7,7.32-9.58C186.16,142.15,219.6,132,238,107.83,249.38,95.35,255.83,78,270.91,69.22c9.58-5.83,25.78-7,25.9,8-.05-.19-.09-.39-.13-.58,5.35,18.8-2.28,37.61-1.84,56.56,8.41,9.45,5.65,26.22-.66,36.36a8.74,8.74,0,0,1,.1,1.84,0,0,0,0,0,0,0c-.11,25-20.05,43-34.32,61.45l.58-.66-1,1.14a2.09,2.09,0,0,1,.14-.17,221.09,221.09,0,0,1-47.62,42.41l0,0C195.6,284.34,180.21,301.42,161.22,303.06Z"/><path class="cls-3" d="M153.51,187.71c-11.83-6,15.62-10.12,19.25-13.23h0C216,155.78,251.52,123.89,283,89.42l0,0c.18-.19.35-.39.52-.58l0,0c26.37-30.95,1.8,9.35-7.81,16.68h0c-.09.1-.18.19-.26.29l.13-.14c-25.9,28.86-55.94,54.72-91.75,70.32h0c-1.81.86-3.6,1.78-5.42,2.63l.11,0-.38.17.19-.09c-1.74.81-3.53,1.49-5.27,2.28l.09-.05-.27.13L173,181C166.7,183.65,160.26,186.71,153.51,187.71Z"/><path class="cls-3" d="M155.94,252.41a7,7,0,0,1-5.18-3.69.3.3,0,0,0,0,.1c-3.83-7.71,5.19-10.41,10.89-11.88,10.4-3.29,20.81-6.87,30.12-12.67h0A506.08,506.08,0,0,0,254,178l-.74.64c12.05-9.42,22.6-20.44,32.82-31.78-.11.11-.21.23-.31.34,25.87-29-6.28,27.34-13.7,32.26-31,32.52-67.25,66.21-113.38,72.82l.88-.16A11.38,11.38,0,0,1,155.94,252.41Z"/><path class="cls-4" d="M145.73,185.58c-28.88-26.6-59.52-51.35-87.16-79.36l0,0-.29-.29.72.72L58,105.61l.25.25-.46-.47.21.22-.11-.11c.08.07.15.15.22.22l-.79-.79.1.1c-.07-.07-.14-.13-.2-.2a.94.94,0,0,0,.1.1c-.38-.37-.74-.74-1.12-1.1l.48.46c-4-4-8-8-12.08-12h0c-.15-.15-.31-.3-.46-.46a.23.23,0,0,0,.07.07c-.25-.24-.5-.48-.74-.73l.34.34L40,87.77l.46.46-.7-.69.19.18c-.11-.11-.23-.22-.34-.34a1.59,1.59,0,0,0,.13.13C-9.91,40.77,6.42,40.52,48,82l-.35-.34.47.46L48,82l.68.68-.15-.14c.16.15.31.3.46.46l-.17-.18c14.07,13.85,28.57,27.27,42.51,41.27l0,0c16.82,15.93,35.35,30,51.87,46.24l0,0c3,3.22,6.78,5.8,9.18,9.48C154.51,183.74,149.41,188.18,145.73,185.58Z"/><path class="cls-5" d="M143.71,251.69c-159.52-152-197.22-225.75-3.32-18l-.53-.5h0l0,0,.16.15-.11-.11.76.74-.53-.52.72.7-.53-.51c3.3,3.83,7.74,6.72,10.4,11l0,0C153.29,249.09,148.06,253.54,143.71,251.69Z"/><path class="cls-6" d="M147.29,181C110.6,150.08,76.65,120.85,43.15,85.74c-11.22-14.07-33.72-29-38-46.13v0a2.89,2.89,0,0,1,0-.29l0,.11c-.41-2.57-.87-5.06-1.24-7.62L4,32.1C2.69,27.43.91,0,9.17,11.13c1.21.08,2.21,1.4,2.72,2.61,15.85-4.36,40.29,24.54,54,33l0,0,0,0h0a7,7,0,0,1,.59.49h0c25.71,20.88,47.64,41.94,70.65,64.91,5.41,5.7,11.91,11.27,16.32,17.88,3.32,7.65,5.73,21.77-3.05,26.54.07,1.06.18,2.21.24,3.28-4.42,2-1.81,8.19-2.15,12,.67,3.44-1,8.85,3.11,10.46C150,182.72,148.24,181.73,147.29,181Z"/><path class="cls-6" d="M103.17,173.6a3.91,3.91,0,0,1,.61-.17c-1.43-1.29-2.79-2.67-4.22-4Q101.38,171.52,103.17,173.6Zm46,71.31-.31-.14c-12.95-.49-27.3-24.34-37.47-32.8-29.56-30.7-58.6-62.81-88.68-94.6h0l-.16-.15h0c-.07-.08-.15-.15-.22-.22l.23.19c-8-8.54-21.18-15.94-20.66-29.06C.8,83.28-2.63,62.66,6.78,65.7,15.25,67.23,19,78.3,25.71,83.38l-.11-.08C48.25,105.8,69.85,129,92.19,151.17h0l.09.1h0c.37.37.77.73,1.2,1.16l-.4-.34c.66.58,1.36,1.25,2,1.87h0c19,18.38,38.79,35.28,56.53,54.4h0a7.77,7.77,0,0,1-.31,6.78c.16,8,1.57,16,2.05,23.81h0v.13h0C153.63,242,153.31,246.94,149.12,244.91Z"/><path class="cls-6" d="M7.53,134.64c-.1-.11-.29-.34-.38-.46,0,.17,0,.31,0,.46Zm44.64,54.68c1.4,1.46,2.78,3,4.16,4.45a1.83,1.83,0,0,1,.28-.14c-1.36-1.52-2.67-3.08-4-4.6A4.43,4.43,0,0,1,52.17,189.32Zm96.55,123.73a10.73,10.73,0,0,1-4-2.9l.12.09c-5.42-5.92-12-10.6-17.59-16.59h0l-.45-.43.17.12c-.76-.68-1.84-1.71-2.57-2.41h0l-.11-.13h0c-13.21-11.5-24.51-24.66-37-36.91l0,0c-27.12-28.8-55.73-56.67-82.57-85.81C1.86,164-.43,159.19.78,153.92c1.55-6.54-2.67-19.82,4.61-22.59,1.81-1.83,4.52,2.23,6.1,3.2,22.22,21.5,43.82,43.2,64.77,66.34,23.52,27.21,50.08,51.77,73.47,78.8a2.93,2.93,0,0,1,.9.63h0a4.74,4.74,0,0,1,1.2,2.33h0v0h0v0c3.28-2.73,1,17.07,1.61,19.2a.64.64,0,0,1,0-.2v.11l0-.11v.06l0-.06c0,.25.05.7.06.95C153.11,306.19,154.77,314.57,148.72,313.05Z"/><path class="cls-7" d="M151.73,245.75a6.9,6.9,0,0,1-3.25-.81,3.41,3.41,0,0,1,.33-.17c4.46,2.33,4.81-2.53,4.46-5.69.69-.12,1.33-.25,2-.4a18.1,18.1,0,0,1-1.94.27c-.48-7.82-1.89-15.85-2.05-23.81a7.77,7.77,0,0,0,.31-6.78c46.9-17.59,89-45.64,122.36-83.05a170.27,170.27,0,0,0,12.9-15.41c9.54-14.28,13.42-17.71,12.61,2.85h0a.44.44,0,0,1,0,.3h0c2.47,29.11-19.72,51.73-39.1,70.35l.15-.21c-28.28,26.31-61,49.86-98.35,61.21l.16-.09C159.15,245.12,155.26,246.05,151.73,245.75Z"/><path class="cls-7" d="M153.42,313.78a6,6,0,0,1-2.35-.65c3.61-1.94,1.87-7.17,2.37-10.52,0-.23,0-.72-.06-.95l.08.28c-.63-2.1,1.69-22-1.63-19.28a5,5,0,0,0-1.22-2.35c2.25-.94,4.37-1.48,6.59-2.32l-.14.11a275.9,275.9,0,0,0,29.25-12.42l-.09.1c33.09-18.81,62.81-40.44,86.44-71l-.12.23a267.76,267.76,0,0,0,15.68-22.12c3-2.52,6.81-16.66,11.44-11.41.73,18.9-3.78,37.13-14.44,52.69l.09-.19C257.79,259,205,301.85,153.42,313.78Z"/><path class="cls-7" d="M164.49,164.29a8.27,8.27,0,0,1-.82,2.37,13.44,13.44,0,0,1,.2,2.09c.4-.23,1.06-.55,1.47-.77l-.12.12c.84-.49,1.71-.91,2.37-1.23a3.61,3.61,0,0,1-.06-1.05,4.2,4.2,0,0,1-3-1.9Zm-11.41,18.93a2.59,2.59,0,0,1-1.52-.83h.2c-4.39-1.27-2.65-7.06-3.32-10.48.34-3.82-2.27-10,2.15-12-.5-7.67,8.4-6.4,11.23-1.4a4.63,4.63,0,0,1,2.31,2.2c12.22-10.43,29.13-15.61,43.74-27.46l-.13.15c7.1-5.11,13.7-10.86,20.5-16.35,3.54-4,12.26-9.09,12.17.08,12.5-9.13,25.65-24.92,36.94-36.33,1.78-1.63,2.7-4.73,5.09-5.44,2.62.28,1.6,3.61,1,5.25,7.5-7.45,7.9-18.32,6.37-28.16-.7-7.48-.64-15.14-1.37-22.61C288,27,286.86,18.4,292,21.57c2.28,3.84,1.4,9,2.4,13.33l-.06-.17c.32,12.14,3.09,24.59,1.23,36.57-7.13,18.29-23.62,31.42-36.76,45.52l.08-.13A367.34,367.34,0,0,1,217.42,151l.18-.19c-16.15,12.07-34.71,23.24-54.08,30.1l.26-.15-.56.26.26-.14C160,182.16,156.73,183.64,153.08,183.22Z"/><path class="cls-7" d="M148.09,160.67c-2.28-8.7-.77-19-6-26.63-15.49-16.22-33.91-29.49-50.72-44.34-27.79-23-54.68-47.18-81.55-71.26-5.61-4.22-7.28-12.59,1.76-5.5C60.16,47.78,106,87.26,149.41,128.18,153.93,131.7,159,173.4,148.09,160.67Z"/><path class="cls-8" d="M159.09,170.05c-15.13-2.79-7.79-21.08-8.84-32v0a.88.88,0,0,1,0-.17.77.77,0,0,1,0,.15c0-.13,0-.25.05-.37,0,0,0,.07,0,.1.33-2.14-.63-4.22-1.7-6a.21.21,0,0,0,0,.06c-11.28-14.91-28.76-24.31-42.85-36.54l.58.42C97.85,89.16,89.42,82.4,81.56,75h0l0,0,0,0,0,0h0L81,74.53l.43.41c-3.12-3-6.08-6.1-9.2-9.07l.16.15-.66-.63.16.15-.31-.29.15.14c-23.21-18.66-44-40-67.7-58.12C3,2.53,8.8,1.37,12.35,1.89l-.12,0c68.66,6.47,137.45-.82,206.22-.18,20.59.17,41.22.09,61.79,1,11.85-2.64,15.41,9.65,14,19.13,0-.2,0-.4,0-.6,0,1.29-.07,2.59-.09,3.88v-.4c-.05,3-.15,6.07-.21,9.11,0-.2,0-.41,0-.61-.05,6.22-.38,12.44-.5,18.66v.29c-1.05,11,2.43,27.68-9.18,33.78l.22-.08-.5.2.25-.11a11.81,11.81,0,0,1-6.52.7h0l-.77-.1c-9.75,21.28-19,73.84-48.55,38.17-13.17,5.57-15.52,34.79-33.71,17.42a6.9,6.9,0,0,0-1.65,1.63h0a.1.1,0,0,1,0,.05h0v0h0C186.29,157.43,177.18,173.84,159.09,170.05Z"/><path class="cls-9" d="M23.27,51.18a11.56,11.56,0,0,1-1.15-1.28l.61.43h0l0,0,0,0s0,0,.05,0h0l0,0,0,0a19.86,19.86,0,0,1,2.92,2.42A10.58,10.58,0,0,1,23.27,51.18Z"/><path class="cls-10" d="M159,137.31a39,39,0,0,1-4.52-2.59l.14.08-.4-.24h0l-.18-.11h0c-16-12.84-31.42-26.88-48.24-39.12l.58.43C97.9,89.21,89.54,82.5,81.73,75.19l.23.23-.27-.26,0,0L81.56,75h0l0,0,0,0L81,74.53l.43.41c-3.12-3-6.08-6.1-9.2-9.07l0,0-.49-.48a1.59,1.59,0,0,0,.13.13c-.13-.13-.28-.25-.41-.39l.08.08C67,62-13.52-7.86,21.83,16.82l0,0,.56.43h0a.27.27,0,0,0,.08.07l0,0C60.34,48.8,99,79.56,136.07,112,138.48,115.88,169.09,136.29,159,137.31Z"/><path class="cls-10" d="M163.37,137.45c-3.27.88-9.56-3-3.92-4.67a15.49,15.49,0,0,0,5-1l-.22.05c16.63-4.49,30.6-15,44.63-24.57l-.45.34.34-.25-.09.07.52-.39-.06,0,.51-.36-.22.15c29.09-21.81,55.79-49.2,71.66-82.22l0,0,.18-.42,0,.06a28.59,28.59,0,0,0,2.06-6.48c-.82-1.45.89-2.67,2.21-2.32,4.06,2.27,2.48,8.9,2,12.76C268.2,78.63,216.09,125.53,163.37,137.45Z"/><path class="cls-10" d="M280.18,17.57c-2.33-1.66.56-3.9,1.23-5.68-88.55-8.58-178.91-3-267.82-5.06h0c.09-4.8,21.08-2.8,26-4.12h-.1l3.33-.2-.31,0c3.87-.22,7.74-.38,11.61-.56H54l1.64-.09h0l1,0h-.1l3-.16h0c63.42-2.38,127-2.69,190.31,2h-.07l.19,0h-.14l3.34.25-.22,0c9.91,2.29,27.53-2.88,32.64,7.77C285.13,13.91,283,18.73,280.18,17.57Z"/><path class="cls-10" d="M160.73,168.27c-10.37,1.39-14.39-24.51-7.61-19.77,3.93,5.51,5.6,15.82,14.22,15.3h-.28c2.11-.55,6.83-1.06,4.24,2.41C168.28,168.42,164.35,168.67,160.73,168.27Z"/><path class="cls-10" d="M199.73,144.28c-2.45-1.3-6.67-4.76-4.68-7.73,3.18-1.72,6.51,1.73,9.72,2.19C210.4,141.78,203.92,147.14,199.73,144.28Z"/><path class="cls-10" d="M243.78,133c-5.78.13-14.7-8.64-11.23-13.9,6.39.2,10.21,11.23,17.65,6.81l0,0,.13-.06,0,0C261.64,118.52,254.68,134.79,243.78,133Z"/><path class="cls-10" d="M278.59,83.6c-4.12-2.69,2.48-9.21,5.74-7.18C288.31,79.37,282.41,86.16,278.59,83.6Z"/><path class="cls-10" d="M159.08,169.81a14.89,14.89,0,0,1-3.17-.88l.07,0-.32-.14.16.06c-5.61-2.31-8.4-8.65-8.26-14.45h0v0c-.07-8.79,3.41-18.68-2.12-26.54a1.6,1.6,0,0,1-.06-2.13c12.3-1.3,10.21,17.3,9.19,25.41v-.07c-1.72,6.53,1.15,15.3,9.27,13.95,3.87.24,2.39,5.2-1,4.87h0A14,14,0,0,1,159.08,169.81Z"/></g></g></svg>