<svg xmlns="http://www.w3.org/2000/svg" viewBox="0 0 49.56 48.88"><defs><style>.cls-1{fill:#99234d;}.cls-2{fill:#da225f;}</style></defs><g id="Layer_2" data-name="Layer 2"><g id="Layer_1-2" data-name="Layer 1"><path class="cls-1" d="M48.9,27.87a12.94,12.94,0,0,1-3.24,4.75A25.55,25.55,0,0,1,34.33,38.5a38.6,38.6,0,0,1-8.21,1.16A36.17,36.17,0,0,1,10.83,37,20.51,20.51,0,0,1,2.7,31.37,10.79,10.79,0,0,1,.58,27.63c4.18,4.45,9.43,6.8,15.22,8.15a39.36,39.36,0,0,0,8.52,1A37.47,37.47,0,0,0,43,32.32,24.51,24.51,0,0,0,48.62,28a1.23,1.23,0,0,0,.12-.26Z"/><path class="cls-1" d="M48.9,37A12.64,12.64,0,0,1,46,41.48a22.31,22.31,0,0,1-6.89,4.58,33.85,33.85,0,0,1-9.57,2.53,39.4,39.4,0,0,1-7.52.2A32.64,32.64,0,0,1,7.46,44.54a15.74,15.74,0,0,1-6.38-6.48c-.19-.38-.34-.78-.48-1.12,1,.88,2,1.85,3.09,2.68a30.66,30.66,0,0,0,11.08,5.09A40,40,0,0,0,26,45.91a38.4,38.4,0,0,0,14.47-3.16,25.13,25.13,0,0,0,8.14-5.61.85.85,0,0,0,.13-.25Z"/><path class="cls-2" d="M26.8,13.71a.72.72,0,0,1,0-1,.69.69,0,0,1,.58-.2l22.19,1.79a10.87,10.87,0,0,0-1.33-4,17.33,17.33,0,0,0-8-6.95,33.64,33.64,0,0,0-12-3.18,39.61,39.61,0,0,0-8.64.17,32.38,32.38,0,0,0-10.24,3A18.77,18.77,0,0,0,2.08,9.12,10,10,0,0,0,1.7,20.79a17.93,17.93,0,0,0,7.58,6.34A36,36,0,0,0,24.8,30.55c1.66-.12,3.32-.14,5-.35A33.38,33.38,0,0,0,40,27.27C38.1,25.34,29.94,17,26.8,13.71Z"/></g></g></svg>